<svg class="rich-terminal" viewBox="0 0 1312 245.2" xmlns="http://www.w3.org/2000/svg">
    <!-- Generated with Rich https://www.textualize.io -->
    <style>

    @font-face {
        font-family: "Fira Code";
        src: local("FiraCode-Regular"),
                url("https://cdnjs.cloudflare.com/ajax/libs/firacode/6.2.0/woff2/FiraCode-Regular.woff2") format("woff2"),
                url("https://cdnjs.cloudflare.com/ajax/libs/firacode/6.2.0/woff/FiraCode-Regular.woff") format("woff");
        font-style: normal;
        font-weight: 400;
    }
    @font-face {
        font-family: "Fira Code";
        src: local("FiraCode-Bold"),
                url("https://cdnjs.cloudflare.com/ajax/libs/firacode/6.2.0/woff2/FiraCode-Bold.woff2") format("woff2"),
                url("https://cdnjs.cloudflare.com/ajax/libs/firacode/6.2.0/woff/FiraCode-Bold.woff") format("woff");
        font-style: bold;
        font-weight: 700;
    }

    .terminal-4191709025-matrix {
        font-family: Fira Code, monospace;
        font-size: 20px;
        line-height: 24.4px;
        font-variant-east-asian: full-width;
    }

    .terminal-4191709025-title {
        font-size: 18px;
        font-weight: bold;
        font-family: arial;
    }

    .terminal-4191709025-r1 { fill: #f85149 }
.terminal-4191709025-r2 { fill: #d9d9d9 }
.terminal-4191709025-r3 { fill: #d29922 }
.terminal-4191709025-r4 { fill: #8b949e }
.terminal-4191709025-r5 { fill: #3fb950 }
.terminal-4191709025-r6 { fill: #c5c8c6 }
.terminal-4191709025-r7 { fill: #e0e0e0;font-weight: bold }
.terminal-4191709025-r8 { fill: #e0e0e0 }
    </style>

    <defs>
    <clipPath id="terminal-4191709025-clip-terminal">
      <rect x="0" y="0" width="1292.1999999999998" height="194.2" />
    </clipPath>
    <clipPath id="terminal-4191709025-line-0">
    <rect x="0" y="1.5" width="1293.2" height="24.65"/>
            </clipPath>
<clipPath id="terminal-4191709025-line-1">
    <rect x="0" y="25.9" width="1293.2" height="24.65"/>
            </clipPath>
<clipPath id="terminal-4191709025-line-2">
    <rect x="0" y="50.3" width="1293.2" height="24.65"/>
            </clipPath>
<clipPath id="terminal-4191709025-line-3">
    <rect x="0" y="74.7" width="1293.2" height="24.65"/>
            </clipPath>
<clipPath id="terminal-4191709025-line-4">
    <rect x="0" y="99.1" width="1293.2" height="24.65"/>
            </clipPath>
<clipPath id="terminal-4191709025-line-5">
    <rect x="0" y="123.5" width="1293.2" height="24.65"/>
            </clipPath>
<clipPath id="terminal-4191709025-line-6">
    <rect x="0" y="147.9" width="1293.2" height="24.65"/>
            </clipPath>
    </defs>

    <rect fill="#292929" stroke="rgba(255,255,255,0.35)" stroke-width="1" x="1" y="1" width="1310" height="243.2" rx="8"/><text class="terminal-4191709025-title" fill="#c5c8c6" text-anchor="middle" x="655" y="27">runstate-tui&#160;—&#160;integrity</text>
        
    <g transform="translate(9, 41)" clip-path="url(#terminal-4191709025-clip-terminal)">
    <rect fill="#121212" x="0" y="1.5" width="24.4" height="24.65" shape-rendering="crispEdges"/><rect fill="#121212" x="24.4" y="1.5" width="146.4" height="24.65" shape-rendering="crispEdges"/><rect fill="#121212" x="170.8" y="1.5" width="24.4" height="24.65" shape-rendering="crispEdges"/><rect fill="#121212" x="195.2" y="1.5" width="183" height="24.65" shape-rendering="crispEdges"/><rect fill="#121212" x="378.2" y="1.5" width="24.4" height="24.65" shape-rendering="crispEdges"/><rect fill="#121212" x="402.6" y="1.5" width="170.8" height="24.65" shape-rendering="crispEdges"/><rect fill="#121212" x="573.4" y="1.5" width="24.4" height="24.65" shape-rendering="crispEdges"/><rect fill="#121212" x="597.8" y="1.5" width="146.4" height="24.65" shape-rendering="crispEdges"/><rect fill="#121212" x="744.2" y="1.5" width="24.4" height="24.65" shape-rendering="crispEdges"/><rect fill="#121212" x="768.6" y="1.5" width="109.8" height="24.65" shape-rendering="crispEdges"/><rect fill="#121212" x="878.4" y="1.5" width="414.8" height="24.65" shape-rendering="crispEdges"/><rect fill="#2d3740" x="0" y="25.9" width="36.6" height="24.65" shape-rendering="crispEdges"/><rect fill="#2d3740" x="36.6" y="25.9" width="158.6" height="24.65" shape-rendering="crispEdges"/><rect fill="#2d3740" x="195.2" y="25.9" width="146.4" height="24.65" shape-rendering="crispEdges"/><rect fill="#2d3740" x="341.6" y="25.9" width="73.2" height="24.65" shape-rendering="crispEdges"/><rect fill="#2d3740" x="414.8" y="25.9" width="61" height="24.65" shape-rendering="crispEdges"/><rect fill="#2d3740" x="475.8" y="25.9" width="85.4" height="24.65" shape-rendering="crispEdges"/><rect fill="#2d3740" x="561.2" y="25.9" width="109.8" height="24.65" shape-rendering="crispEdges"/><rect fill="#2d3740" x="671" y="25.9" width="48.8" height="24.65" shape-rendering="crispEdges"/><rect fill="#2b3339" x="719.8" y="25.9" width="573.4" height="24.65" shape-rendering="crispEdges"/><rect fill="#272727" x="0" y="50.3" width="12.2" height="24.65" shape-rendering="crispEdges"/><rect fill="#272727" x="12.2" y="50.3" width="12.2" height="24.65" shape-rendering="crispEdges"/><rect fill="#272727" x="24.4" y="50.3" width="12.2" height="24.65" shape-rendering="crispEdges"/><rect fill="#272727" x="36.6" y="50.3" width="158.6" height="24.65" shape-rendering="crispEdges"/><rect fill="#272727" x="195.2" y="50.3" width="146.4" height="24.65" shape-rendering="crispEdges"/><rect fill="#272727" x="341.6" y="50.3" width="73.2" height="24.65" shape-rendering="crispEdges"/><rect fill="#272727" x="414.8" y="50.3" width="61" height="24.65" shape-rendering="crispEdges"/><rect fill="#272727" x="475.8" y="50.3" width="85.4" height="24.65" shape-rendering="crispEdges"/><rect fill="#272727" x="561.2" y="50.3" width="109.8" height="24.65" shape-rendering="crispEdges"/><rect fill="#272727" x="671" y="50.3" width="48.8" height="24.65" shape-rendering="crispEdges"/><rect fill="#272727" x="719.8" y="50.3" width="573.4" height="24.65" shape-rendering="crispEdges"/><rect fill="#272727" x="0" y="74.7" width="12.2" height="24.65" shape-rendering="crispEdges"/><rect fill="#272727" x="12.2" y="74.7" width="12.2" height="24.65" shape-rendering="crispEdges"/><rect fill="#272727" x="24.4" y="74.7" width="12.2" height="24.65" shape-rendering="crispEdges"/><rect fill="#272727" x="36.6" y="74.7" width="158.6" height="24.65" shape-rendering="crispEdges"/><rect fill="#272727" x="195.2" y="74.7" width="146.4" height="24.65" shape-rendering="crispEdges"/><rect fill="#272727" x="341.6" y="74.7" width="73.2" height="24.65" shape-rendering="crispEdges"/><rect fill="#272727" x="414.8" y="74.7" width="61" height="24.65" shape-rendering="crispEdges"/><rect fill="#272727" x="475.8" y="74.7" width="85.4" height="24.65" shape-rendering="crispEdges"/><rect fill="#272727" x="561.2" y="74.7" width="109.8" height="24.65" shape-rendering="crispEdges"/><rect fill="#272727" x="671" y="74.7" width="48.8" height="24.65" shape-rendering="crispEdges"/><rect fill="#272727" x="719.8" y="74.7" width="573.4" height="24.65" shape-rendering="crispEdges"/><rect fill="#272727" x="0" y="99.1" width="12.2" height="24.65" shape-rendering="crispEdges"/><rect fill="#272727" x="12.2" y="99.1" width="12.2" height="24.65" shape-rendering="crispEdges"/><rect fill="#272727" x="24.4" y="99.1" width="12.2" height="24.65" shape-rendering="crispEdges"/><rect fill="#272727" x="36.6" y="99.1" width="158.6" height="24.65" shape-rendering="crispEdges"/><rect fill="#272727" x="195.2" y="99.1" width="146.4" height="24.65" shape-rendering="crispEdges"/><rect fill="#272727" x="341.6" y="99.1" width="73.2" height="24.65" shape-rendering="crispEdges"/><rect fill="#272727" x="414.8" y="99.1" width="61" height="24.65" shape-rendering="crispEdges"/><rect fill="#272727" x="475.8" y="99.1" width="85.4" height="24.65" shape-rendering="crispEdges"/><rect fill="#272727" x="561.2" y="99.1" width="109.8" height="24.65" shape-rendering="crispEdges"/><rect fill="#272727" x="671" y="99.1" width="12.2" height="24.65" shape-rendering="crispEdges"/><rect fill="#272727" x="683.2" y="99.1" width="12.2" height="24.65" shape-rendering="crispEdges"/><rect fill="#272727" x="695.4" y="99.1" width="24.4" height="24.65" shape-rendering="crispEdges"/><rect fill="#272727" x="719.8" y="99.1" width="573.4" height="24.65" shape-rendering="crispEdges"/><rect fill="#272727" x="0" y="123.5" width="12.2" height="24.65" shape-rendering="crispEdges"/><rect fill="#272727" x="12.2" y="123.5" width="12.2" height="24.65" shape-rendering="crispEdges"/><rect fill="#272727" x="24.4" y="123.5" width="12.2" height="24.65" shape-rendering="crispEdges"/><rect fill="#272727" x="36.6" y="123.5" width="158.6" height="24.65" shape-rendering="crispEdges"/><rect fill="#272727" x="195.2" y="123.5" width="146.4" height="24.65" shape-rendering="crispEdges"/><rect fill="#272727" x="341.6" y="123.5" width="73.2" height="24.65" shape-rendering="crispEdges"/><rect fill="#272727" x="414.8" y="123.5" width="61" height="24.65" shape-rendering="crispEdges"/><rect fill="#272727" x="475.8" y="123.5" width="85.4" height="24.65" shape-rendering="crispEdges"/><rect fill="#272727" x="561.2" y="123.5" width="109.8" height="24.65" shape-rendering="crispEdges"/><rect fill="#272727" x="671" y="123.5" width="12.2" height="24.65" shape-rendering="crispEdges"/><rect fill="#272727" x="683.2" y="123.5" width="24.4" height="24.65" shape-rendering="crispEdges"/><rect fill="#272727" x="707.6" y="123.5" width="12.2" height="24.65" shape-rendering="crispEdges"/><rect fill="#272727" x="719.8" y="123.5" width="573.4" height="24.65" shape-rendering="crispEdges"/><rect fill="#121212" x="0" y="147.9" width="1293.2" height="24.65" shape-rendering="crispEdges"/><rect fill="#121212" x="0" y="172.3" width="1293.2" height="24.65" shape-rendering="crispEdges"/>
    <g class="terminal-4191709025-matrix">
    <text class="terminal-4191709025-r1" x="0" y="20" textLength="24.4" clip-path="url(#terminal-4191709025-line-0)">●&#160;</text><text class="terminal-4191709025-r2" x="24.4" y="20" textLength="146.4" clip-path="url(#terminal-4191709025-line-0)">corrupt&#160;1&#160;&#160;&#160;</text><text class="terminal-4191709025-r1" x="170.8" y="20" textLength="24.4" clip-path="url(#terminal-4191709025-line-0)">●&#160;</text><text class="terminal-4191709025-r2" x="195.2" y="20" textLength="183" clip-path="url(#terminal-4191709025-line-0)">unreadable&#160;1&#160;&#160;&#160;</text><text class="terminal-4191709025-r3" x="378.2" y="20" textLength="24.4" clip-path="url(#terminal-4191709025-line-0)">⚠&#160;</text><text class="terminal-4191709025-r2" x="402.6" y="20" textLength="170.8" clip-path="url(#terminal-4191709025-line-0)">malformed&#160;1&#160;&#160;&#160;</text><text class="terminal-4191709025-r4" x="573.4" y="20" textLength="24.4" clip-path="url(#terminal-4191709025-line-0)">●&#160;</text><text class="terminal-4191709025-r2" x="597.8" y="20" textLength="146.4" clip-path="url(#terminal-4191709025-line-0)">missing&#160;1&#160;&#160;&#160;</text><text class="terminal-4191709025-r5" x="744.2" y="20" textLength="24.4" clip-path="url(#terminal-4191709025-line-0)">●&#160;</text><text class="terminal-4191709025-r2" x="768.6" y="20" textLength="109.8" clip-path="url(#terminal-4191709025-line-0)">live&#160;1&#160;&#160;&#160;</text><text class="terminal-4191709025-r6" x="1293.2" y="20" textLength="12.2" clip-path="url(#terminal-4191709025-line-0)">
</text><text class="terminal-4191709025-r7" x="36.6" y="44.4" textLength="158.6" clip-path="url(#terminal-4191709025-line-1)">&#160;run&#160;&#160;&#160;&#160;&#160;&#160;&#160;&#160;&#160;</text><text class="terminal-4191709025-r7" x="195.2" y="44.4" textLength="146.4" clip-path="url(#terminal-4191709025-line-1)">&#160;status&#160;&#160;&#160;&#160;&#160;</text><text class="terminal-4191709025-r7" x="341.6" y="44.4" textLength="73.2" clip-path="url(#terminal-4191709025-line-1)">&#160;step&#160;</text><text class="terminal-4191709025-r7" x="414.8" y="44.4" textLength="61" clip-path="url(#terminal-4191709025-line-1)">&#160;age&#160;</text><text class="terminal-4191709025-r7" x="475.8" y="44.4" textLength="85.4" clip-path="url(#terminal-4191709025-line-1)">&#160;value&#160;</text><text class="terminal-4191709025-r7" x="561.2" y="44.4" textLength="109.8" clip-path="url(#terminal-4191709025-line-1)">&#160;elapsed&#160;</text><text class="terminal-4191709025-r7" x="671" y="44.4" textLength="48.8" clip-path="url(#terminal-4191709025-line-1)">&#160;!&#160;&#160;</text><text class="terminal-4191709025-r6" x="1293.2" y="44.4" textLength="12.2" clip-path="url(#terminal-4191709025-line-1)">
</text><text class="terminal-4191709025-r1" x="12.2" y="68.8" textLength="12.2" clip-path="url(#terminal-4191709025-line-2)">●</text><text class="terminal-4191709025-r8" x="36.6" y="68.8" textLength="158.6" clip-path="url(#terminal-4191709025-line-2)">&#160;eval-glue&#160;&#160;&#160;</text><text class="terminal-4191709025-r8" x="195.2" y="68.8" textLength="146.4" clip-path="url(#terminal-4191709025-line-2)">&#160;unreadable&#160;</text><text class="terminal-4191709025-r6" x="1293.2" y="68.8" textLength="12.2" clip-path="url(#terminal-4191709025-line-2)">
</text><text class="terminal-4191709025-r4" x="12.2" y="93.2" textLength="12.2" clip-path="url(#terminal-4191709025-line-3)">●</text><text class="terminal-4191709025-r8" x="36.6" y="93.2" textLength="158.6" clip-path="url(#terminal-4191709025-line-3)">&#160;finetune-t5&#160;</text><text class="terminal-4191709025-r8" x="195.2" y="93.2" textLength="146.4" clip-path="url(#terminal-4191709025-line-3)">&#160;missing&#160;&#160;&#160;&#160;</text><text class="terminal-4191709025-r6" x="1293.2" y="93.2" textLength="12.2" clip-path="url(#terminal-4191709025-line-3)">
</text><text class="terminal-4191709025-r5" x="12.2" y="117.6" textLength="12.2" clip-path="url(#terminal-4191709025-line-4)">●</text><text class="terminal-4191709025-r8" x="36.6" y="117.6" textLength="158.6" clip-path="url(#terminal-4191709025-line-4)">&#160;sweep-lr9&#160;&#160;&#160;</text><text class="terminal-4191709025-r8" x="195.2" y="117.6" textLength="146.4" clip-path="url(#terminal-4191709025-line-4)">&#160;live&#160;&#160;&#160;&#160;&#160;&#160;&#160;</text><text class="terminal-4191709025-r8" x="341.6" y="117.6" textLength="73.2" clip-path="url(#terminal-4191709025-line-4)">&#160;10&#160;&#160;&#160;</text><text class="terminal-4191709025-r8" x="414.8" y="117.6" textLength="61" clip-path="url(#terminal-4191709025-line-4)">&#160;8s&#160;&#160;</text><text class="terminal-4191709025-r8" x="561.2" y="117.6" textLength="109.8" clip-path="url(#terminal-4191709025-line-4)">&#160;20s&#160;&#160;&#160;&#160;&#160;</text><text class="terminal-4191709025-r3" x="683.2" y="117.6" textLength="12.2" clip-path="url(#terminal-4191709025-line-4)">⚠</text><text class="terminal-4191709025-r6" x="1293.2" y="117.6" textLength="12.2" clip-path="url(#terminal-4191709025-line-4)">
</text><text class="terminal-4191709025-r1" x="12.2" y="142" textLength="12.2" clip-path="url(#terminal-4191709025-line-5)">●</text><text class="terminal-4191709025-r8" x="36.6" y="142" textLength="158.6" clip-path="url(#terminal-4191709025-line-5)">&#160;train-gpt2&#160;&#160;</text><text class="terminal-4191709025-r8" x="195.2" y="142" textLength="146.4" clip-path="url(#terminal-4191709025-line-5)">&#160;corrupt&#160;&#160;&#160;&#160;</text><text class="terminal-4191709025-r1" x="683.2" y="142" textLength="24.4" clip-path="url(#terminal-4191709025-line-5)">⚠⚠</text><text class="terminal-4191709025-r6" x="1293.2" y="142" textLength="12.2" clip-path="url(#terminal-4191709025-line-5)">
</text><text class="terminal-4191709025-r6" x="1293.2" y="166.4" textLength="12.2" clip-path="url(#terminal-4191709025-line-6)">
</text>
    </g>
    </g>
</svg>
