<svg class="rich-terminal" viewBox="0 0 1360 489.2" xmlns="http://www.w3.org/2000/svg">
    <!-- Generated with Rich https://www.textualize.io -->
    <style>

    @font-face {
        font-family: "Fira Code";
        src: local("FiraCode-Regular"),
                url("https://cdnjs.cloudflare.com/ajax/libs/firacode/6.2.0/woff2/FiraCode-Regular.woff2") format("woff2"),
                url("https://cdnjs.cloudflare.com/ajax/libs/firacode/6.2.0/woff/FiraCode-Regular.woff") format("woff");
        font-style: normal;
        font-weight: 400;
    }
    @font-face {
        font-family: "Fira Code";
        src: local("FiraCode-Bold"),
                url("https://cdnjs.cloudflare.com/ajax/libs/firacode/6.2.0/woff2/FiraCode-Bold.woff2") format("woff2"),
                url("https://cdnjs.cloudflare.com/ajax/libs/firacode/6.2.0/woff/FiraCode-Bold.woff") format("woff");
        font-style: bold;
        font-weight: 700;
    }

    .terminal-3684520882-matrix {
        font-family: Fira Code, monospace;
        font-size: 20px;
        line-height: 24.4px;
        font-variant-east-asian: full-width;
    }

    .terminal-3684520882-title {
        font-size: 18px;
        font-weight: bold;
        font-family: arial;
    }

    .terminal-3684520882-r1 { fill: #e0e0e0;font-weight: bold }
.terminal-3684520882-r2 { fill: #c5c8c6 }
.terminal-3684520882-r3 { fill: #e0e0e0 }
.terminal-3684520882-r4 { fill: #949494 }
.terminal-3684520882-r5 { fill: #98e024 }
.terminal-3684520882-r6 { fill: #f4005f }
.terminal-3684520882-r7 { fill: #fd971f }
.terminal-3684520882-r8 { fill: #ddedf9;font-weight: bold }
.terminal-3684520882-r9 { fill: #9d65ff }
    </style>

    <defs>
    <clipPath id="terminal-3684520882-clip-terminal">
      <rect x="0" y="0" width="1341.0" height="438.2" />
    </clipPath>
    <clipPath id="terminal-3684520882-line-0">
    <rect x="0" y="1.5" width="1342" height="24.65"/>
            </clipPath>
<clipPath id="terminal-3684520882-line-1">
    <rect x="0" y="25.9" width="1342" height="24.65"/>
            </clipPath>
<clipPath id="terminal-3684520882-line-2">
    <rect x="0" y="50.3" width="1342" height="24.65"/>
            </clipPath>
<clipPath id="terminal-3684520882-line-3">
    <rect x="0" y="74.7" width="1342" height="24.65"/>
            </clipPath>
<clipPath id="terminal-3684520882-line-4">
    <rect x="0" y="99.1" width="1342" height="24.65"/>
            </clipPath>
<clipPath id="terminal-3684520882-line-5">
    <rect x="0" y="123.5" width="1342" height="24.65"/>
            </clipPath>
<clipPath id="terminal-3684520882-line-6">
    <rect x="0" y="147.9" width="1342" height="24.65"/>
            </clipPath>
<clipPath id="terminal-3684520882-line-7">
    <rect x="0" y="172.3" width="1342" height="24.65"/>
            </clipPath>
<clipPath id="terminal-3684520882-line-8">
    <rect x="0" y="196.7" width="1342" height="24.65"/>
            </clipPath>
<clipPath id="terminal-3684520882-line-9">
    <rect x="0" y="221.1" width="1342" height="24.65"/>
            </clipPath>
<clipPath id="terminal-3684520882-line-10">
    <rect x="0" y="245.5" width="1342" height="24.65"/>
            </clipPath>
<clipPath id="terminal-3684520882-line-11">
    <rect x="0" y="269.9" width="1342" height="24.65"/>
            </clipPath>
<clipPath id="terminal-3684520882-line-12">
    <rect x="0" y="294.3" width="1342" height="24.65"/>
            </clipPath>
<clipPath id="terminal-3684520882-line-13">
    <rect x="0" y="318.7" width="1342" height="24.65"/>
            </clipPath>
<clipPath id="terminal-3684520882-line-14">
    <rect x="0" y="343.1" width="1342" height="24.65"/>
            </clipPath>
<clipPath id="terminal-3684520882-line-15">
    <rect x="0" y="367.5" width="1342" height="24.65"/>
            </clipPath>
<clipPath id="terminal-3684520882-line-16">
    <rect x="0" y="391.9" width="1342" height="24.65"/>
            </clipPath>
    </defs>

    <rect fill="#292929" stroke="rgba(255,255,255,0.35)" stroke-width="1" x="1" y="1" width="1358" height="487.2" rx="8"/><text class="terminal-3684520882-title" fill="#c5c8c6" text-anchor="middle" x="679" y="27">runstate-tui&#160;—&#160;sweep</text>
            <g transform="translate(26,22)">
            <circle cx="0" cy="0" r="7" fill="#ff5f57"/>
            <circle cx="22" cy="0" r="7" fill="#febc2e"/>
            <circle cx="44" cy="0" r="7" fill="#28c840"/>
            </g>
        
    <g transform="translate(9, 41)" clip-path="url(#terminal-3684520882-clip-terminal)">
    <rect fill="#2d3740" x="0" y="1.5" width="36.6" height="24.65" shape-rendering="crispEdges"/><rect fill="#2d3740" x="36.6" y="1.5" width="170.8" height="24.65" shape-rendering="crispEdges"/><rect fill="#2d3740" x="207.4" y="1.5" width="231.8" height="24.65" shape-rendering="crispEdges"/><rect fill="#2d3740" x="439.2" y="1.5" width="73.2" height="24.65" shape-rendering="crispEdges"/><rect fill="#2d3740" x="512.4" y="1.5" width="73.2" height="24.65" shape-rendering="crispEdges"/><rect fill="#2d3740" x="585.6" y="1.5" width="219.6" height="24.65" shape-rendering="crispEdges"/><rect fill="#2d3740" x="805.2" y="1.5" width="109.8" height="24.65" shape-rendering="crispEdges"/><rect fill="#2d3740" x="915" y="1.5" width="48.8" height="24.65" shape-rendering="crispEdges"/><rect fill="#2d3740" x="963.8" y="1.5" width="378.2" height="24.65" shape-rendering="crispEdges"/><rect fill="#272727" x="0" y="25.9" width="12.2" height="24.65" shape-rendering="crispEdges"/><rect fill="#272727" x="12.2" y="25.9" width="12.2" height="24.65" shape-rendering="crispEdges"/><rect fill="#272727" x="24.4" y="25.9" width="12.2" height="24.65" shape-rendering="crispEdges"/><rect fill="#272727" x="36.6" y="25.9" width="170.8" height="24.65" shape-rendering="crispEdges"/><rect fill="#272727" x="207.4" y="25.9" width="231.8" height="24.65" shape-rendering="crispEdges"/><rect fill="#272727" x="439.2" y="25.9" width="73.2" height="24.65" shape-rendering="crispEdges"/><rect fill="#272727" x="512.4" y="25.9" width="73.2" height="24.65" shape-rendering="crispEdges"/><rect fill="#272727" x="585.6" y="25.9" width="219.6" height="24.65" shape-rendering="crispEdges"/><rect fill="#272727" x="805.2" y="25.9" width="109.8" height="24.65" shape-rendering="crispEdges"/><rect fill="#272727" x="915" y="25.9" width="48.8" height="24.65" shape-rendering="crispEdges"/><rect fill="#272727" x="963.8" y="25.9" width="378.2" height="24.65" shape-rendering="crispEdges"/><rect fill="#272727" x="0" y="50.3" width="12.2" height="24.65" shape-rendering="crispEdges"/><rect fill="#272727" x="12.2" y="50.3" width="12.2" height="24.65" shape-rendering="crispEdges"/><rect fill="#272727" x="24.4" y="50.3" width="12.2" height="24.65" shape-rendering="crispEdges"/><rect fill="#272727" x="36.6" y="50.3" width="170.8" height="24.65" shape-rendering="crispEdges"/><rect fill="#272727" x="207.4" y="50.3" width="231.8" height="24.65" shape-rendering="crispEdges"/><rect fill="#272727" x="439.2" y="50.3" width="73.2" height="24.65" shape-rendering="crispEdges"/><rect fill="#272727" x="512.4" y="50.3" width="73.2" height="24.65" shape-rendering="crispEdges"/><rect fill="#272727" x="585.6" y="50.3" width="219.6" height="24.65" shape-rendering="crispEdges"/><rect fill="#272727" x="805.2" y="50.3" width="109.8" height="24.65" shape-rendering="crispEdges"/><rect fill="#272727" x="915" y="50.3" width="48.8" height="24.65" shape-rendering="crispEdges"/><rect fill="#272727" x="963.8" y="50.3" width="378.2" height="24.65" shape-rendering="crispEdges"/><rect fill="#272727" x="0" y="74.7" width="12.2" height="24.65" shape-rendering="crispEdges"/><rect fill="#272727" x="12.2" y="74.7" width="12.2" height="24.65" shape-rendering="crispEdges"/><rect fill="#272727" x="24.4" y="74.7" width="12.2" height="24.65" shape-rendering="crispEdges"/><rect fill="#272727" x="36.6" y="74.7" width="170.8" height="24.65" shape-rendering="crispEdges"/><rect fill="#272727" x="207.4" y="74.7" width="231.8" height="24.65" shape-rendering="crispEdges"/><rect fill="#272727" x="439.2" y="74.7" width="73.2" height="24.65" shape-rendering="crispEdges"/><rect fill="#272727" x="512.4" y="74.7" width="73.2" height="24.65" shape-rendering="crispEdges"/><rect fill="#272727" x="585.6" y="74.7" width="219.6" height="24.65" shape-rendering="crispEdges"/><rect fill="#272727" x="805.2" y="74.7" width="109.8" height="24.65" shape-rendering="crispEdges"/><rect fill="#272727" x="915" y="74.7" width="48.8" height="24.65" shape-rendering="crispEdges"/><rect fill="#272727" x="963.8" y="74.7" width="378.2" height="24.65" shape-rendering="crispEdges"/><rect fill="#272727" x="0" y="99.1" width="12.2" height="24.65" shape-rendering="crispEdges"/><rect fill="#272727" x="12.2" y="99.1" width="12.2" height="24.65" shape-rendering="crispEdges"/><rect fill="#272727" x="24.4" y="99.1" width="12.2" height="24.65" shape-rendering="crispEdges"/><rect fill="#272727" x="36.6" y="99.1" width="170.8" height="24.65" shape-rendering="crispEdges"/><rect fill="#272727" x="207.4" y="99.1" width="231.8" height="24.65" shape-rendering="crispEdges"/><rect fill="#272727" x="439.2" y="99.1" width="73.2" height="24.65" shape-rendering="crispEdges"/><rect fill="#272727" x="512.4" y="99.1" width="73.2" height="24.65" shape-rendering="crispEdges"/><rect fill="#272727" x="585.6" y="99.1" width="219.6" height="24.65" shape-rendering="crispEdges"/><rect fill="#272727" x="805.2" y="99.1" width="109.8" height="24.65" shape-rendering="crispEdges"/><rect fill="#272727" x="915" y="99.1" width="48.8" height="24.65" shape-rendering="crispEdges"/><rect fill="#272727" x="963.8" y="99.1" width="378.2" height="24.65" shape-rendering="crispEdges"/><rect fill="#0178d4" x="0" y="123.5" width="36.6" height="24.65" shape-rendering="crispEdges"/><rect fill="#0178d4" x="36.6" y="123.5" width="170.8" height="24.65" shape-rendering="crispEdges"/><rect fill="#0178d4" x="207.4" y="123.5" width="231.8" height="24.65" shape-rendering="crispEdges"/><rect fill="#0178d4" x="439.2" y="123.5" width="73.2" height="24.65" shape-rendering="crispEdges"/><rect fill="#0178d4" x="512.4" y="123.5" width="73.2" height="24.65" shape-rendering="crispEdges"/><rect fill="#0178d4" x="585.6" y="123.5" width="219.6" height="24.65" shape-rendering="crispEdges"/><rect fill="#0178d4" x="805.2" y="123.5" width="109.8" height="24.65" shape-rendering="crispEdges"/><rect fill="#0178d4" x="915" y="123.5" width="48.8" height="24.65" shape-rendering="crispEdges"/><rect fill="#0178d4" x="963.8" y="123.5" width="378.2" height="24.65" shape-rendering="crispEdges"/><rect fill="#272727" x="0" y="147.9" width="12.2" height="24.65" shape-rendering="crispEdges"/><rect fill="#272727" x="12.2" y="147.9" width="12.2" height="24.65" shape-rendering="crispEdges"/><rect fill="#272727" x="24.4" y="147.9" width="12.2" height="24.65" shape-rendering="crispEdges"/><rect fill="#272727" x="36.6" y="147.9" width="170.8" height="24.65" shape-rendering="crispEdges"/><rect fill="#272727" x="207.4" y="147.9" width="231.8" height="24.65" shape-rendering="crispEdges"/><rect fill="#272727" x="439.2" y="147.9" width="73.2" height="24.65" shape-rendering="crispEdges"/><rect fill="#272727" x="512.4" y="147.9" width="73.2" height="24.65" shape-rendering="crispEdges"/><rect fill="#272727" x="585.6" y="147.9" width="219.6" height="24.65" shape-rendering="crispEdges"/><rect fill="#272727" x="805.2" y="147.9" width="109.8" height="24.65" shape-rendering="crispEdges"/><rect fill="#272727" x="915" y="147.9" width="48.8" height="24.65" shape-rendering="crispEdges"/><rect fill="#272727" x="963.8" y="147.9" width="378.2" height="24.65" shape-rendering="crispEdges"/><rect fill="#121212" x="0" y="172.3" width="1342" height="24.65" shape-rendering="crispEdges"/><rect fill="#121212" x="0" y="196.7" width="1342" height="24.65" shape-rendering="crispEdges"/><rect fill="#121212" x="0" y="221.1" width="1342" height="24.65" shape-rendering="crispEdges"/><rect fill="#121212" x="0" y="245.5" width="1342" height="24.65" shape-rendering="crispEdges"/><rect fill="#121212" x="0" y="269.9" width="1342" height="24.65" shape-rendering="crispEdges"/><rect fill="#121212" x="0" y="294.3" width="1342" height="24.65" shape-rendering="crispEdges"/><rect fill="#121212" x="0" y="318.7" width="1342" height="24.65" shape-rendering="crispEdges"/><rect fill="#121212" x="0" y="343.1" width="1342" height="24.65" shape-rendering="crispEdges"/><rect fill="#121212" x="0" y="367.5" width="1342" height="24.65" shape-rendering="crispEdges"/><rect fill="#121212" x="0" y="391.9" width="1342" height="24.65" shape-rendering="crispEdges"/><rect fill="#121212" x="0" y="416.3" width="1342" height="24.65" shape-rendering="crispEdges"/>
    <g class="terminal-3684520882-matrix">
    <text class="terminal-3684520882-r1" x="36.6" y="20" textLength="170.8" clip-path="url(#terminal-3684520882-line-0)">&#160;run&#160;&#160;&#160;&#160;&#160;&#160;&#160;&#160;&#160;&#160;</text><text class="terminal-3684520882-r1" x="207.4" y="20" textLength="231.8" clip-path="url(#terminal-3684520882-line-0)">&#160;status&#160;&#160;&#160;&#160;&#160;&#160;&#160;&#160;&#160;&#160;&#160;&#160;</text><text class="terminal-3684520882-r1" x="439.2" y="20" textLength="73.2" clip-path="url(#terminal-3684520882-line-0)">&#160;step&#160;</text><text class="terminal-3684520882-r1" x="512.4" y="20" textLength="73.2" clip-path="url(#terminal-3684520882-line-0)">&#160;age&#160;&#160;</text><text class="terminal-3684520882-r1" x="585.6" y="20" textLength="219.6" clip-path="url(#terminal-3684520882-line-0)">&#160;value&#160;&#160;&#160;&#160;&#160;&#160;&#160;&#160;&#160;&#160;&#160;&#160;</text><text class="terminal-3684520882-r1" x="805.2" y="20" textLength="109.8" clip-path="url(#terminal-3684520882-line-0)">&#160;elapsed&#160;</text><text class="terminal-3684520882-r1" x="915" y="20" textLength="48.8" clip-path="url(#terminal-3684520882-line-0)">&#160;!&#160;&#160;</text><text class="terminal-3684520882-r2" x="1342" y="20" textLength="12.2" clip-path="url(#terminal-3684520882-line-0)">
</text><text class="terminal-3684520882-r4" x="12.2" y="44.4" textLength="12.2" clip-path="url(#terminal-3684520882-line-1)">●</text><text class="terminal-3684520882-r3" x="36.6" y="44.4" textLength="170.8" clip-path="url(#terminal-3684520882-line-1)">&#160;queued-run&#160;&#160;&#160;</text><text class="terminal-3684520882-r3" x="207.4" y="44.4" textLength="231.8" clip-path="url(#terminal-3684520882-line-1)">&#160;pending&#160;&#160;&#160;&#160;&#160;&#160;&#160;&#160;&#160;&#160;&#160;</text><text class="terminal-3684520882-r2" x="1342" y="44.4" textLength="12.2" clip-path="url(#terminal-3684520882-line-1)">
</text><text class="terminal-3684520882-r5" x="12.2" y="68.8" textLength="12.2" clip-path="url(#terminal-3684520882-line-2)">●</text><text class="terminal-3684520882-r3" x="36.6" y="68.8" textLength="170.8" clip-path="url(#terminal-3684520882-line-2)">&#160;sweep-07&#160;&#160;&#160;&#160;&#160;</text><text class="terminal-3684520882-r3" x="207.4" y="68.8" textLength="231.8" clip-path="url(#terminal-3684520882-line-2)">&#160;live&#160;&#160;&#160;&#160;&#160;&#160;&#160;&#160;&#160;&#160;&#160;&#160;&#160;&#160;</text><text class="terminal-3684520882-r3" x="439.2" y="68.8" textLength="73.2" clip-path="url(#terminal-3684520882-line-2)">&#160;22&#160;&#160;&#160;</text><text class="terminal-3684520882-r3" x="512.4" y="68.8" textLength="73.2" clip-path="url(#terminal-3684520882-line-2)">&#160;2s&#160;&#160;&#160;</text><text class="terminal-3684520882-r3" x="805.2" y="68.8" textLength="109.8" clip-path="url(#terminal-3684520882-line-2)">&#160;6s&#160;&#160;&#160;&#160;&#160;&#160;</text><text class="terminal-3684520882-r3" x="915" y="68.8" textLength="48.8" clip-path="url(#terminal-3684520882-line-2)">&#160;■1&#160;</text><text class="terminal-3684520882-r2" x="1342" y="68.8" textLength="12.2" clip-path="url(#terminal-3684520882-line-2)">
</text><text class="terminal-3684520882-r6" x="12.2" y="93.2" textLength="12.2" clip-path="url(#terminal-3684520882-line-3)">●</text><text class="terminal-3684520882-r3" x="36.6" y="93.2" textLength="170.8" clip-path="url(#terminal-3684520882-line-3)">&#160;sweep-11&#160;&#160;&#160;&#160;&#160;</text><text class="terminal-3684520882-r3" x="207.4" y="93.2" textLength="231.8" clip-path="url(#terminal-3684520882-line-3)">&#160;errored:&#160;CUDA&#160;OOM&#160;</text><text class="terminal-3684520882-r3" x="439.2" y="93.2" textLength="73.2" clip-path="url(#terminal-3684520882-line-3)">&#160;300&#160;&#160;</text><text class="terminal-3684520882-r3" x="512.4" y="93.2" textLength="73.2" clip-path="url(#terminal-3684520882-line-3)">&#160;115s&#160;</text><text class="terminal-3684520882-r3" x="805.2" y="93.2" textLength="109.8" clip-path="url(#terminal-3684520882-line-3)">&#160;200s&#160;&#160;&#160;&#160;</text><text class="terminal-3684520882-r2" x="1342" y="93.2" textLength="12.2" clip-path="url(#terminal-3684520882-line-3)">
</text><text class="terminal-3684520882-r7" x="12.2" y="117.6" textLength="12.2" clip-path="url(#terminal-3684520882-line-4)">●</text><text class="terminal-3684520882-r3" x="36.6" y="117.6" textLength="170.8" clip-path="url(#terminal-3684520882-line-4)">&#160;train-cifar&#160;&#160;</text><text class="terminal-3684520882-r3" x="207.4" y="117.6" textLength="231.8" clip-path="url(#terminal-3684520882-line-4)">&#160;stale&#160;&#160;&#160;&#160;&#160;&#160;&#160;&#160;&#160;&#160;&#160;&#160;&#160;</text><text class="terminal-3684520882-r3" x="439.2" y="117.6" textLength="73.2" clip-path="url(#terminal-3684520882-line-4)">&#160;780&#160;&#160;</text><text class="terminal-3684520882-r3" x="512.4" y="117.6" textLength="73.2" clip-path="url(#terminal-3684520882-line-4)">&#160;160s&#160;</text><text class="terminal-3684520882-r3" x="805.2" y="117.6" textLength="109.8" clip-path="url(#terminal-3684520882-line-4)">&#160;240s&#160;&#160;&#160;&#160;</text><text class="terminal-3684520882-r2" x="1342" y="117.6" textLength="12.2" clip-path="url(#terminal-3684520882-line-4)">
</text><text class="terminal-3684520882-r8" x="0" y="142" textLength="36.6" clip-path="url(#terminal-3684520882-line-5)">&#160;●&#160;</text><text class="terminal-3684520882-r8" x="36.6" y="142" textLength="170.8" clip-path="url(#terminal-3684520882-line-5)">&#160;train-mnist&#160;&#160;</text><text class="terminal-3684520882-r8" x="207.4" y="142" textLength="231.8" clip-path="url(#terminal-3684520882-line-5)">&#160;live&#160;&#160;&#160;&#160;&#160;&#160;&#160;&#160;&#160;&#160;&#160;&#160;&#160;&#160;</text><text class="terminal-3684520882-r8" x="439.2" y="142" textLength="73.2" clip-path="url(#terminal-3684520882-line-5)">&#160;1450&#160;</text><text class="terminal-3684520882-r8" x="512.4" y="142" textLength="73.2" clip-path="url(#terminal-3684520882-line-5)">&#160;8s&#160;&#160;&#160;</text><text class="terminal-3684520882-r8" x="585.6" y="142" textLength="219.6" clip-path="url(#terminal-3684520882-line-5)">&#160;loss=0.0123@1450&#160;</text><text class="terminal-3684520882-r8" x="805.2" y="142" textLength="109.8" clip-path="url(#terminal-3684520882-line-5)">&#160;20s&#160;&#160;&#160;&#160;&#160;</text><text class="terminal-3684520882-r2" x="1342" y="142" textLength="12.2" clip-path="url(#terminal-3684520882-line-5)">
</text><text class="terminal-3684520882-r9" x="12.2" y="166.4" textLength="12.2" clip-path="url(#terminal-3684520882-line-6)">●</text><text class="terminal-3684520882-r3" x="36.6" y="166.4" textLength="170.8" clip-path="url(#terminal-3684520882-line-6)">&#160;train-resnet&#160;</text><text class="terminal-3684520882-r3" x="207.4" y="166.4" textLength="231.8" clip-path="url(#terminal-3684520882-line-6)">&#160;done&#160;&#160;&#160;&#160;&#160;&#160;&#160;&#160;&#160;&#160;&#160;&#160;&#160;&#160;</text><text class="terminal-3684520882-r3" x="439.2" y="166.4" textLength="73.2" clip-path="url(#terminal-3684520882-line-6)">&#160;5000&#160;</text><text class="terminal-3684520882-r3" x="512.4" y="166.4" textLength="73.2" clip-path="url(#terminal-3684520882-line-6)">&#160;95s&#160;&#160;</text><text class="terminal-3684520882-r3" x="805.2" y="166.4" textLength="109.8" clip-path="url(#terminal-3684520882-line-6)">&#160;250s&#160;&#160;&#160;&#160;</text><text class="terminal-3684520882-r2" x="1342" y="166.4" textLength="12.2" clip-path="url(#terminal-3684520882-line-6)">
</text><text class="terminal-3684520882-r2" x="1342" y="190.8" textLength="12.2" clip-path="url(#terminal-3684520882-line-7)">
</text><text class="terminal-3684520882-r2" x="1342" y="215.2" textLength="12.2" clip-path="url(#terminal-3684520882-line-8)">
</text><text class="terminal-3684520882-r2" x="1342" y="239.6" textLength="12.2" clip-path="url(#terminal-3684520882-line-9)">
</text><text class="terminal-3684520882-r2" x="1342" y="264" textLength="12.2" clip-path="url(#terminal-3684520882-line-10)">
</text><text class="terminal-3684520882-r2" x="1342" y="288.4" textLength="12.2" clip-path="url(#terminal-3684520882-line-11)">
</text><text class="terminal-3684520882-r2" x="1342" y="312.8" textLength="12.2" clip-path="url(#terminal-3684520882-line-12)">
</text><text class="terminal-3684520882-r2" x="1342" y="337.2" textLength="12.2" clip-path="url(#terminal-3684520882-line-13)">
</text><text class="terminal-3684520882-r2" x="1342" y="361.6" textLength="12.2" clip-path="url(#terminal-3684520882-line-14)">
</text><text class="terminal-3684520882-r2" x="1342" y="386" textLength="12.2" clip-path="url(#terminal-3684520882-line-15)">
</text><text class="terminal-3684520882-r2" x="1342" y="410.4" textLength="12.2" clip-path="url(#terminal-3684520882-line-16)">
</text>
    </g>
    </g>
</svg>
