<svg class="rich-terminal" viewBox="0 0 1336 294.0" xmlns="http://www.w3.org/2000/svg">
    <!-- Generated with Rich https://www.textualize.io -->
    <style>

    @font-face {
        font-family: "Fira Code";
        src: local("FiraCode-Regular"),
                url("https://cdnjs.cloudflare.com/ajax/libs/firacode/6.2.0/woff2/FiraCode-Regular.woff2") format("woff2"),
                url("https://cdnjs.cloudflare.com/ajax/libs/firacode/6.2.0/woff/FiraCode-Regular.woff") format("woff");
        font-style: normal;
        font-weight: 400;
    }
    @font-face {
        font-family: "Fira Code";
        src: local("FiraCode-Bold"),
                url("https://cdnjs.cloudflare.com/ajax/libs/firacode/6.2.0/woff2/FiraCode-Bold.woff2") format("woff2"),
                url("https://cdnjs.cloudflare.com/ajax/libs/firacode/6.2.0/woff/FiraCode-Bold.woff") format("woff");
        font-style: bold;
        font-weight: 700;
    }

    .terminal-925934301-matrix {
        font-family: Fira Code, monospace;
        font-size: 20px;
        line-height: 24.4px;
        font-variant-east-asian: full-width;
    }

    .terminal-925934301-title {
        font-size: 18px;
        font-weight: bold;
        font-family: arial;
    }

    .terminal-925934301-r1 { fill: #e0e0e0;font-weight: bold }
.terminal-925934301-r2 { fill: #e0e0e0 }
.terminal-925934301-r3 { fill: #c5c8c6 }
.terminal-925934301-r4 { fill: #8b949e }
.terminal-925934301-r5 { fill: #3fb950 }
.terminal-925934301-r6 { fill: #d9d9d9 }
.terminal-925934301-r7 { fill: #f85149 }
.terminal-925934301-r8 { fill: #d29922 }
.terminal-925934301-r9 { fill: #539bf5 }
    </style>

    <defs>
    <clipPath id="terminal-925934301-clip-terminal">
      <rect x="0" y="0" width="1316.6" height="243.0" />
    </clipPath>
    <clipPath id="terminal-925934301-line-0">
    <rect x="0" y="1.5" width="1317.6" height="24.65"/>
            </clipPath>
<clipPath id="terminal-925934301-line-1">
    <rect x="0" y="25.9" width="1317.6" height="24.65"/>
            </clipPath>
<clipPath id="terminal-925934301-line-2">
    <rect x="0" y="50.3" width="1317.6" height="24.65"/>
            </clipPath>
<clipPath id="terminal-925934301-line-3">
    <rect x="0" y="74.7" width="1317.6" height="24.65"/>
            </clipPath>
<clipPath id="terminal-925934301-line-4">
    <rect x="0" y="99.1" width="1317.6" height="24.65"/>
            </clipPath>
<clipPath id="terminal-925934301-line-5">
    <rect x="0" y="123.5" width="1317.6" height="24.65"/>
            </clipPath>
<clipPath id="terminal-925934301-line-6">
    <rect x="0" y="147.9" width="1317.6" height="24.65"/>
            </clipPath>
<clipPath id="terminal-925934301-line-7">
    <rect x="0" y="172.3" width="1317.6" height="24.65"/>
            </clipPath>
<clipPath id="terminal-925934301-line-8">
    <rect x="0" y="196.7" width="1317.6" height="24.65"/>
            </clipPath>
    </defs>

    <rect fill="#292929" stroke="rgba(255,255,255,0.35)" stroke-width="1" x="1" y="1" width="1334" height="292" rx="8"/><text class="terminal-925934301-title" fill="#c5c8c6" text-anchor="middle" x="667" y="27">runstate-tui&#160;—&#160;sweep</text>
            <g transform="translate(26,22)">
            <circle cx="0" cy="0" r="7" fill="#ff5f57"/>
            <circle cx="22" cy="0" r="7" fill="#febc2e"/>
            <circle cx="44" cy="0" r="7" fill="#28c840"/>
            </g>
        
    <g transform="translate(9, 41)" clip-path="url(#terminal-925934301-clip-terminal)">
    <rect fill="#2d3740" x="0" y="1.5" width="36.6" height="24.65" shape-rendering="crispEdges"/><rect fill="#2d3740" x="36.6" y="1.5" width="170.8" height="24.65" shape-rendering="crispEdges"/><rect fill="#2d3740" x="207.4" y="1.5" width="231.8" height="24.65" shape-rendering="crispEdges"/><rect fill="#2d3740" x="439.2" y="1.5" width="73.2" height="24.65" shape-rendering="crispEdges"/><rect fill="#2d3740" x="512.4" y="1.5" width="73.2" height="24.65" shape-rendering="crispEdges"/><rect fill="#2d3740" x="585.6" y="1.5" width="219.6" height="24.65" shape-rendering="crispEdges"/><rect fill="#2d3740" x="805.2" y="1.5" width="109.8" height="24.65" shape-rendering="crispEdges"/><rect fill="#2d3740" x="915" y="1.5" width="48.8" height="24.65" shape-rendering="crispEdges"/><rect fill="#2b3339" x="963.8" y="1.5" width="353.8" height="24.65" shape-rendering="crispEdges"/><rect fill="#272727" x="0" y="25.9" width="12.2" height="24.65" shape-rendering="crispEdges"/><rect fill="#272727" x="12.2" y="25.9" width="12.2" height="24.65" shape-rendering="crispEdges"/><rect fill="#272727" x="24.4" y="25.9" width="12.2" height="24.65" shape-rendering="crispEdges"/><rect fill="#272727" x="36.6" y="25.9" width="170.8" height="24.65" shape-rendering="crispEdges"/><rect fill="#272727" x="207.4" y="25.9" width="231.8" height="24.65" shape-rendering="crispEdges"/><rect fill="#272727" x="439.2" y="25.9" width="73.2" height="24.65" shape-rendering="crispEdges"/><rect fill="#272727" x="512.4" y="25.9" width="73.2" height="24.65" shape-rendering="crispEdges"/><rect fill="#272727" x="585.6" y="25.9" width="219.6" height="24.65" shape-rendering="crispEdges"/><rect fill="#272727" x="805.2" y="25.9" width="109.8" height="24.65" shape-rendering="crispEdges"/><rect fill="#272727" x="915" y="25.9" width="48.8" height="24.65" shape-rendering="crispEdges"/><rect fill="#272727" x="963.8" y="25.9" width="353.8" height="24.65" shape-rendering="crispEdges"/><rect fill="#272727" x="0" y="50.3" width="12.2" height="24.65" shape-rendering="crispEdges"/><rect fill="#272727" x="12.2" y="50.3" width="12.2" height="24.65" shape-rendering="crispEdges"/><rect fill="#272727" x="24.4" y="50.3" width="12.2" height="24.65" shape-rendering="crispEdges"/><rect fill="#272727" x="36.6" y="50.3" width="170.8" height="24.65" shape-rendering="crispEdges"/><rect fill="#272727" x="207.4" y="50.3" width="231.8" height="24.65" shape-rendering="crispEdges"/><rect fill="#272727" x="439.2" y="50.3" width="73.2" height="24.65" shape-rendering="crispEdges"/><rect fill="#272727" x="512.4" y="50.3" width="73.2" height="24.65" shape-rendering="crispEdges"/><rect fill="#272727" x="585.6" y="50.3" width="219.6" height="24.65" shape-rendering="crispEdges"/><rect fill="#272727" x="805.2" y="50.3" width="109.8" height="24.65" shape-rendering="crispEdges"/><rect fill="#272727" x="915" y="50.3" width="12.2" height="24.65" shape-rendering="crispEdges"/><rect fill="#272727" x="927.2" y="50.3" width="24.4" height="24.65" shape-rendering="crispEdges"/><rect fill="#272727" x="951.6" y="50.3" width="12.2" height="24.65" shape-rendering="crispEdges"/><rect fill="#272727" x="963.8" y="50.3" width="353.8" height="24.65" shape-rendering="crispEdges"/><rect fill="#272727" x="0" y="74.7" width="12.2" height="24.65" shape-rendering="crispEdges"/><rect fill="#272727" x="12.2" y="74.7" width="12.2" height="24.65" shape-rendering="crispEdges"/><rect fill="#272727" x="24.4" y="74.7" width="12.2" height="24.65" shape-rendering="crispEdges"/><rect fill="#272727" x="36.6" y="74.7" width="170.8" height="24.65" shape-rendering="crispEdges"/><rect fill="#272727" x="207.4" y="74.7" width="231.8" height="24.65" shape-rendering="crispEdges"/><rect fill="#272727" x="439.2" y="74.7" width="73.2" height="24.65" shape-rendering="crispEdges"/><rect fill="#272727" x="512.4" y="74.7" width="73.2" height="24.65" shape-rendering="crispEdges"/><rect fill="#272727" x="585.6" y="74.7" width="219.6" height="24.65" shape-rendering="crispEdges"/><rect fill="#272727" x="805.2" y="74.7" width="109.8" height="24.65" shape-rendering="crispEdges"/><rect fill="#272727" x="915" y="74.7" width="48.8" height="24.65" shape-rendering="crispEdges"/><rect fill="#272727" x="963.8" y="74.7" width="353.8" height="24.65" shape-rendering="crispEdges"/><rect fill="#272727" x="0" y="99.1" width="12.2" height="24.65" shape-rendering="crispEdges"/><rect fill="#272727" x="12.2" y="99.1" width="12.2" height="24.65" shape-rendering="crispEdges"/><rect fill="#272727" x="24.4" y="99.1" width="12.2" height="24.65" shape-rendering="crispEdges"/><rect fill="#272727" x="36.6" y="99.1" width="170.8" height="24.65" shape-rendering="crispEdges"/><rect fill="#272727" x="207.4" y="99.1" width="231.8" height="24.65" shape-rendering="crispEdges"/><rect fill="#272727" x="439.2" y="99.1" width="73.2" height="24.65" shape-rendering="crispEdges"/><rect fill="#272727" x="512.4" y="99.1" width="73.2" height="24.65" shape-rendering="crispEdges"/><rect fill="#272727" x="585.6" y="99.1" width="219.6" height="24.65" shape-rendering="crispEdges"/><rect fill="#272727" x="805.2" y="99.1" width="109.8" height="24.65" shape-rendering="crispEdges"/><rect fill="#272727" x="915" y="99.1" width="48.8" height="24.65" shape-rendering="crispEdges"/><rect fill="#272727" x="963.8" y="99.1" width="353.8" height="24.65" shape-rendering="crispEdges"/><rect fill="#272727" x="0" y="123.5" width="12.2" height="24.65" shape-rendering="crispEdges"/><rect fill="#272727" x="12.2" y="123.5" width="12.2" height="24.65" shape-rendering="crispEdges"/><rect fill="#272727" x="24.4" y="123.5" width="12.2" height="24.65" shape-rendering="crispEdges"/><rect fill="#272727" x="36.6" y="123.5" width="170.8" height="24.65" shape-rendering="crispEdges"/><rect fill="#272727" x="207.4" y="123.5" width="231.8" height="24.65" shape-rendering="crispEdges"/><rect fill="#272727" x="439.2" y="123.5" width="73.2" height="24.65" shape-rendering="crispEdges"/><rect fill="#272727" x="512.4" y="123.5" width="73.2" height="24.65" shape-rendering="crispEdges"/><rect fill="#272727" x="585.6" y="123.5" width="219.6" height="24.65" shape-rendering="crispEdges"/><rect fill="#272727" x="805.2" y="123.5" width="109.8" height="24.65" shape-rendering="crispEdges"/><rect fill="#272727" x="915" y="123.5" width="48.8" height="24.65" shape-rendering="crispEdges"/><rect fill="#272727" x="963.8" y="123.5" width="353.8" height="24.65" shape-rendering="crispEdges"/><rect fill="#272727" x="0" y="147.9" width="12.2" height="24.65" shape-rendering="crispEdges"/><rect fill="#272727" x="12.2" y="147.9" width="12.2" height="24.65" shape-rendering="crispEdges"/><rect fill="#272727" x="24.4" y="147.9" width="12.2" height="24.65" shape-rendering="crispEdges"/><rect fill="#272727" x="36.6" y="147.9" width="170.8" height="24.65" shape-rendering="crispEdges"/><rect fill="#272727" x="207.4" y="147.9" width="231.8" height="24.65" shape-rendering="crispEdges"/><rect fill="#272727" x="439.2" y="147.9" width="73.2" height="24.65" shape-rendering="crispEdges"/><rect fill="#272727" x="512.4" y="147.9" width="73.2" height="24.65" shape-rendering="crispEdges"/><rect fill="#272727" x="585.6" y="147.9" width="219.6" height="24.65" shape-rendering="crispEdges"/><rect fill="#272727" x="805.2" y="147.9" width="109.8" height="24.65" shape-rendering="crispEdges"/><rect fill="#272727" x="915" y="147.9" width="48.8" height="24.65" shape-rendering="crispEdges"/><rect fill="#272727" x="963.8" y="147.9" width="353.8" height="24.65" shape-rendering="crispEdges"/><rect fill="#121212" x="0" y="172.3" width="1317.6" height="24.65" shape-rendering="crispEdges"/><rect fill="#121212" x="0" y="196.7" width="1317.6" height="24.65" shape-rendering="crispEdges"/><rect fill="#121212" x="0" y="221.1" width="1317.6" height="24.65" shape-rendering="crispEdges"/>
    <g class="terminal-925934301-matrix">
    <text class="terminal-925934301-r1" x="36.6" y="20" textLength="170.8" clip-path="url(#terminal-925934301-line-0)">&#160;run&#160;&#160;&#160;&#160;&#160;&#160;&#160;&#160;&#160;&#160;</text><text class="terminal-925934301-r1" x="207.4" y="20" textLength="231.8" clip-path="url(#terminal-925934301-line-0)">&#160;status&#160;&#160;&#160;&#160;&#160;&#160;&#160;&#160;&#160;&#160;&#160;&#160;</text><text class="terminal-925934301-r1" x="439.2" y="20" textLength="73.2" clip-path="url(#terminal-925934301-line-0)">&#160;step&#160;</text><text class="terminal-925934301-r1" x="512.4" y="20" textLength="73.2" clip-path="url(#terminal-925934301-line-0)">&#160;age&#160;&#160;</text><text class="terminal-925934301-r1" x="585.6" y="20" textLength="219.6" clip-path="url(#terminal-925934301-line-0)">&#160;value&#160;&#160;&#160;&#160;&#160;&#160;&#160;&#160;&#160;&#160;&#160;&#160;</text><text class="terminal-925934301-r1" x="805.2" y="20" textLength="109.8" clip-path="url(#terminal-925934301-line-0)">&#160;elapsed&#160;</text><text class="terminal-925934301-r1" x="915" y="20" textLength="48.8" clip-path="url(#terminal-925934301-line-0)">&#160;!&#160;&#160;</text><text class="terminal-925934301-r3" x="1317.6" y="20" textLength="12.2" clip-path="url(#terminal-925934301-line-0)">
</text><text class="terminal-925934301-r4" x="12.2" y="44.4" textLength="12.2" clip-path="url(#terminal-925934301-line-1)">●</text><text class="terminal-925934301-r2" x="36.6" y="44.4" textLength="170.8" clip-path="url(#terminal-925934301-line-1)">&#160;queued-run&#160;&#160;&#160;</text><text class="terminal-925934301-r2" x="207.4" y="44.4" textLength="231.8" clip-path="url(#terminal-925934301-line-1)">&#160;pending&#160;&#160;&#160;&#160;&#160;&#160;&#160;&#160;&#160;&#160;&#160;</text><text class="terminal-925934301-r3" x="1317.6" y="44.4" textLength="12.2" clip-path="url(#terminal-925934301-line-1)">
</text><text class="terminal-925934301-r5" x="12.2" y="68.8" textLength="12.2" clip-path="url(#terminal-925934301-line-2)">●</text><text class="terminal-925934301-r2" x="36.6" y="68.8" textLength="170.8" clip-path="url(#terminal-925934301-line-2)">&#160;sweep-07&#160;&#160;&#160;&#160;&#160;</text><text class="terminal-925934301-r2" x="207.4" y="68.8" textLength="231.8" clip-path="url(#terminal-925934301-line-2)">&#160;live&#160;&#160;&#160;&#160;&#160;&#160;&#160;&#160;&#160;&#160;&#160;&#160;&#160;&#160;</text><text class="terminal-925934301-r2" x="439.2" y="68.8" textLength="73.2" clip-path="url(#terminal-925934301-line-2)">&#160;22&#160;&#160;&#160;</text><text class="terminal-925934301-r2" x="512.4" y="68.8" textLength="73.2" clip-path="url(#terminal-925934301-line-2)">&#160;2s&#160;&#160;&#160;</text><text class="terminal-925934301-r2" x="805.2" y="68.8" textLength="109.8" clip-path="url(#terminal-925934301-line-2)">&#160;6s&#160;&#160;&#160;&#160;&#160;&#160;</text><text class="terminal-925934301-r6" x="927.2" y="68.8" textLength="24.4" clip-path="url(#terminal-925934301-line-2)">■1</text><text class="terminal-925934301-r3" x="1317.6" y="68.8" textLength="12.2" clip-path="url(#terminal-925934301-line-2)">
</text><text class="terminal-925934301-r7" x="12.2" y="93.2" textLength="12.2" clip-path="url(#terminal-925934301-line-3)">●</text><text class="terminal-925934301-r2" x="36.6" y="93.2" textLength="170.8" clip-path="url(#terminal-925934301-line-3)">&#160;sweep-11&#160;&#160;&#160;&#160;&#160;</text><text class="terminal-925934301-r2" x="207.4" y="93.2" textLength="231.8" clip-path="url(#terminal-925934301-line-3)">&#160;errored:&#160;CUDA&#160;OOM&#160;</text><text class="terminal-925934301-r2" x="439.2" y="93.2" textLength="73.2" clip-path="url(#terminal-925934301-line-3)">&#160;300&#160;&#160;</text><text class="terminal-925934301-r2" x="512.4" y="93.2" textLength="73.2" clip-path="url(#terminal-925934301-line-3)">&#160;115s&#160;</text><text class="terminal-925934301-r2" x="805.2" y="93.2" textLength="109.8" clip-path="url(#terminal-925934301-line-3)">&#160;200s&#160;&#160;&#160;&#160;</text><text class="terminal-925934301-r3" x="1317.6" y="93.2" textLength="12.2" clip-path="url(#terminal-925934301-line-3)">
</text><text class="terminal-925934301-r8" x="12.2" y="117.6" textLength="12.2" clip-path="url(#terminal-925934301-line-4)">●</text><text class="terminal-925934301-r2" x="36.6" y="117.6" textLength="170.8" clip-path="url(#terminal-925934301-line-4)">&#160;train-cifar&#160;&#160;</text><text class="terminal-925934301-r2" x="207.4" y="117.6" textLength="231.8" clip-path="url(#terminal-925934301-line-4)">&#160;stale&#160;&#160;&#160;&#160;&#160;&#160;&#160;&#160;&#160;&#160;&#160;&#160;&#160;</text><text class="terminal-925934301-r2" x="439.2" y="117.6" textLength="73.2" clip-path="url(#terminal-925934301-line-4)">&#160;780&#160;&#160;</text><text class="terminal-925934301-r2" x="512.4" y="117.6" textLength="73.2" clip-path="url(#terminal-925934301-line-4)">&#160;160s&#160;</text><text class="terminal-925934301-r2" x="805.2" y="117.6" textLength="109.8" clip-path="url(#terminal-925934301-line-4)">&#160;240s&#160;&#160;&#160;&#160;</text><text class="terminal-925934301-r3" x="1317.6" y="117.6" textLength="12.2" clip-path="url(#terminal-925934301-line-4)">
</text><text class="terminal-925934301-r5" x="12.2" y="142" textLength="12.2" clip-path="url(#terminal-925934301-line-5)">●</text><text class="terminal-925934301-r2" x="36.6" y="142" textLength="170.8" clip-path="url(#terminal-925934301-line-5)">&#160;train-mnist&#160;&#160;</text><text class="terminal-925934301-r2" x="207.4" y="142" textLength="231.8" clip-path="url(#terminal-925934301-line-5)">&#160;live&#160;&#160;&#160;&#160;&#160;&#160;&#160;&#160;&#160;&#160;&#160;&#160;&#160;&#160;</text><text class="terminal-925934301-r2" x="439.2" y="142" textLength="73.2" clip-path="url(#terminal-925934301-line-5)">&#160;1450&#160;</text><text class="terminal-925934301-r2" x="512.4" y="142" textLength="73.2" clip-path="url(#terminal-925934301-line-5)">&#160;8s&#160;&#160;&#160;</text><text class="terminal-925934301-r2" x="585.6" y="142" textLength="219.6" clip-path="url(#terminal-925934301-line-5)">&#160;loss=0.0123@1450&#160;</text><text class="terminal-925934301-r2" x="805.2" y="142" textLength="109.8" clip-path="url(#terminal-925934301-line-5)">&#160;20s&#160;&#160;&#160;&#160;&#160;</text><text class="terminal-925934301-r3" x="1317.6" y="142" textLength="12.2" clip-path="url(#terminal-925934301-line-5)">
</text><text class="terminal-925934301-r9" x="12.2" y="166.4" textLength="12.2" clip-path="url(#terminal-925934301-line-6)">●</text><text class="terminal-925934301-r2" x="36.6" y="166.4" textLength="170.8" clip-path="url(#terminal-925934301-line-6)">&#160;train-resnet&#160;</text><text class="terminal-925934301-r2" x="207.4" y="166.4" textLength="231.8" clip-path="url(#terminal-925934301-line-6)">&#160;done&#160;&#160;&#160;&#160;&#160;&#160;&#160;&#160;&#160;&#160;&#160;&#160;&#160;&#160;</text><text class="terminal-925934301-r2" x="439.2" y="166.4" textLength="73.2" clip-path="url(#terminal-925934301-line-6)">&#160;5000&#160;</text><text class="terminal-925934301-r2" x="512.4" y="166.4" textLength="73.2" clip-path="url(#terminal-925934301-line-6)">&#160;95s&#160;&#160;</text><text class="terminal-925934301-r2" x="805.2" y="166.4" textLength="109.8" clip-path="url(#terminal-925934301-line-6)">&#160;250s&#160;&#160;&#160;&#160;</text><text class="terminal-925934301-r3" x="1317.6" y="166.4" textLength="12.2" clip-path="url(#terminal-925934301-line-6)">
</text><text class="terminal-925934301-r3" x="1317.6" y="190.8" textLength="12.2" clip-path="url(#terminal-925934301-line-7)">
</text><text class="terminal-925934301-r3" x="1317.6" y="215.2" textLength="12.2" clip-path="url(#terminal-925934301-line-8)">
</text>
    </g>
    </g>
</svg>
